<svg xmlns="http://www.w3.org/2000/svg" viewBox="0 0 24 24" fill="currentColor" width="24px" height="24px">

<path d="M-281,400.8c-1,0-1.8-0.3-2.5-1c-0.7-0.7-1-1.5-1-2.5c0-0.2,0.1-0.7,0.1-0.7l7,0c0,0,0.1,0.5,0.1,0.7c0,1-0.3,1.8-1,2.5
		C-279.2,400.4-280,400.8-281,400.8z M-288.1,407.9v-2.5c0-0.5,0.1-1,0.4-1.4s0.6-0.7,1-1c0.9-0.5,1.9-0.8,2.8-1
		c1-0.2,1.9-0.3,2.9-0.3s2,0.1,2.9,0.3c1,0.2,1.9,0.6,2.8,1c0.4,0.2,0.8,0.5,1,1s0.4,0.9,0.4,1.4v2.5H-288.1z M-286.4,406.1h10.7
		v-0.7c0-0.2,0-0.3-0.1-0.4c-0.1-0.1-0.2-0.2-0.3-0.3c-0.8-0.4-1.6-0.7-2.4-0.9c-0.8-0.2-1.6-0.3-2.5-0.3s-1.7,0.1-2.5,0.3
		c-0.8,0.2-1.6,0.5-2.4,0.9c-0.1,0.1-0.2,0.2-0.3,0.3c-0.1,0.1-0.1,0.3-0.1,0.4V406.1z M-281,399c0.5,0,0.9-0.2,1.3-0.5
		c0.3-0.3,0.5-0.8,0.5-1.3c0-0.2-3.6-0.2-3.6,0c0,0.5,0.2,0.9,0.5,1.3C-281.9,398.8-281.5,399-281,399z M-285.2,395.1l2.3-5.1
		c0.3-0.7,0.9-1.4,1.6-1.8l3.2-2c0.1,0,0.1-0.1,0.2-0.1c0.2,0,0.4,0.2,0.4,0.4v0c0,0.1,0,0.1,0,0.2l-1.3,3.2c0,0.1-0.1,0.2-0.1,0.3
		c0,0.1,0,0.2,0.1,0.3l2,4.5H-285.2z M-285.8,395.8h9.7c0.4,0,0.7,0.3,0.7,0.7s-0.3,0.7-0.7,0.7h-9.7c-0.4,0-0.7-0.3-0.7-0.7
		S-286.2,395.8-285.8,395.8z"/>
</svg>