<?xml version="1.0" encoding="utf-8"?>
<!-- Generator: Adobe Illustrator 19.0.0, SVG Export Plug-In . SVG Version: 6.00 Build 0)  -->
<svg version="1.1" xmlns="http://www.w3.org/2000/svg" xmlns:xlink="http://www.w3.org/1999/xlink" x="0px" y="0px"
	 viewBox="-293 385 24 24" style="enable-background:new -293 385 24 24;" xml:space="preserve">
<style type="text/css">
	.st0{fill:none;stroke:#000000;stroke-width:2;stroke-linecap:round;stroke-linejoin:round;stroke-miterlimit:10;}
</style>
<g id="Layer_1">
	<path d="M-272.7,402.8c-0.3-0.5-0.7-0.9-1.3-1.2c-1.1-0.6-2.3-1-3.5-1.3s-2.4-0.4-3.6-0.4s-2.4,0.1-3.6,0.4s-2.3,0.7-3.5,1.3
		c-0.5,0.3-1,0.7-1.3,1.2c-0.3,0.5-0.5,1.1-0.5,1.7v3.1h17.6v-3.1C-272.2,403.9-272.4,403.3-272.7,402.8z M-274.4,405.4h-13.2v-0.9
		c0-0.2,0.1-0.4,0.2-0.5c0.1-0.2,0.2-0.3,0.4-0.4c1-0.5,2-0.9,3-1.1c1-0.3,2-0.4,3.1-0.4s2,0.1,3.1,0.4c1,0.2,2,0.6,3,1.1
		c0.2,0.1,0.3,0.2,0.4,0.4c0.1,0.2,0.2,0.4,0.2,0.5V405.4z M-276.8,393.2l-2.8-0.5c0,0,0.1,0,0.1,0.1c0.4,0.4,0.6,0.9,0.6,1.5
		s-0.2,1.1-0.6,1.5c-0.4,0.4-0.9,0.6-1.5,0.6s-1.1-0.2-1.5-0.6c-0.4-0.4-0.6-0.9-0.6-1.5s0.2-1.1,0.6-1.5c0.2-0.2,0.4-0.4,0.7-0.5
		l-2.8-0.5c-0.5,0.7-0.8,1.6-0.8,2.5c0,1.2,0.4,2.2,1.3,3.1c0.9,0.9,1.9,1.3,3.1,1.3s2.2-0.4,3.1-1.3c0.9-0.9,1.3-1.9,1.3-3.1
		C-276.6,394-276.7,393.6-276.8,393.2z"/>
</g>
<g id="Layer_3">
	<g>
		<line class="st0" x1="-288.8" y1="391.1" x2="-272.2" y2="393.6"/>
		<path class="st0" d="M-284.3,391.8l0.8-1.4c0.6-0.9,1.2-1.8,2-2.5l0,0l0,0c0.9-0.8,2-1.3,3.2-1.4l0.5,0c0.7,0,1.5,0.2,2,0.7l0,0
			c0,0,0,0,0,0c0.8,0.8,1.2,1.9,1.2,3.1l0,0.4l-2.2-1.8c-0.4-0.2-0.9,0-1.1,0.3l-0.1,0.1c-0.3,0.4-0.3,0.9-0.1,1.4l0.5,1
			c0.1,0.2,0.3,0.4,0.4,0.6l0.5,0.5"/>
	</g>
</g>
</svg>
